<mxfile host="app.diagrams.net" modified="2023-03-28T00:00:53.797Z" agent="5.0 (Windows NT 10.0; Win64; x64) AppleWebKit/537.36 (KHTML, like Gecko) Chrome/111.0.0.0 Safari/537.36" etag="EkxZSR4Y2juTW1zNzUUd" version="21.0.10" type="github">
  <diagram id="R2lEEEUBdFMjLlhIrx00" name="Page-1">
    <mxGraphModel dx="1863" dy="560" grid="1" gridSize="10" guides="1" tooltips="1" connect="1" arrows="1" fold="1" page="1" pageScale="1" pageWidth="850" pageHeight="1100" math="0" shadow="0" extFonts="Permanent Marker^https://fonts.googleapis.com/css?family=Permanent+Marker">
      <root>
        <mxCell id="0" />
        <mxCell id="1" parent="0" />
        <mxCell id="xLVzN7RcIW8N4ALDFcyE-3" value="STAFF" style="whiteSpace=wrap;html=1;align=center;labelBackgroundColor=none;" vertex="1" parent="1">
          <mxGeometry x="90" y="220" width="200" height="70" as="geometry" />
        </mxCell>
        <mxCell id="xLVzN7RcIW8N4ALDFcyE-4" value="" style="endArrow=none;html=1;rounded=0;labelBackgroundColor=none;fontColor=default;" edge="1" parent="1" target="xLVzN7RcIW8N4ALDFcyE-5">
          <mxGeometry width="50" height="50" relative="1" as="geometry">
            <mxPoint x="240" y="220" as="sourcePoint" />
            <mxPoint x="300" y="160" as="targetPoint" />
          </mxGeometry>
        </mxCell>
        <mxCell id="xLVzN7RcIW8N4ALDFcyE-5" value="Staff_ID" style="ellipse;whiteSpace=wrap;html=1;align=center;fontStyle=4;labelBackgroundColor=none;" vertex="1" parent="1">
          <mxGeometry x="250" y="140" width="100" height="40" as="geometry" />
        </mxCell>
        <mxCell id="xLVzN7RcIW8N4ALDFcyE-6" value="" style="endArrow=none;html=1;rounded=0;labelBackgroundColor=none;fontColor=default;" edge="1" parent="1" target="xLVzN7RcIW8N4ALDFcyE-7">
          <mxGeometry width="50" height="50" relative="1" as="geometry">
            <mxPoint x="190" y="220" as="sourcePoint" />
            <mxPoint x="190" y="140" as="targetPoint" />
          </mxGeometry>
        </mxCell>
        <mxCell id="xLVzN7RcIW8N4ALDFcyE-7" value="Staff_Name" style="ellipse;whiteSpace=wrap;html=1;align=center;labelBackgroundColor=none;" vertex="1" parent="1">
          <mxGeometry x="140" y="120" width="100" height="40" as="geometry" />
        </mxCell>
        <mxCell id="xLVzN7RcIW8N4ALDFcyE-8" value="" style="endArrow=none;html=1;rounded=0;" edge="1" parent="1" target="xLVzN7RcIW8N4ALDFcyE-9">
          <mxGeometry width="50" height="50" relative="1" as="geometry">
            <mxPoint x="100" y="220" as="sourcePoint" />
            <mxPoint x="70" y="160" as="targetPoint" />
          </mxGeometry>
        </mxCell>
        <mxCell id="xLVzN7RcIW8N4ALDFcyE-9" value="Staff_Role" style="ellipse;whiteSpace=wrap;html=1;align=center;" vertex="1" parent="1">
          <mxGeometry x="20" y="140" width="100" height="40" as="geometry" />
        </mxCell>
        <mxCell id="xLVzN7RcIW8N4ALDFcyE-15" value="" style="endArrow=none;html=1;rounded=0;exitX=0;exitY=0.5;exitDx=0;exitDy=0;exitPerimeter=0;" edge="1" parent="1" source="xLVzN7RcIW8N4ALDFcyE-3" target="xLVzN7RcIW8N4ALDFcyE-16">
          <mxGeometry relative="1" as="geometry">
            <mxPoint x="90" y="260" as="sourcePoint" />
            <mxPoint x="200" y="370" as="targetPoint" />
          </mxGeometry>
        </mxCell>
        <mxCell id="xLVzN7RcIW8N4ALDFcyE-16" value="&lt;span style=&quot;border-bottom: 1px dotted&quot;&gt;Role-ID&lt;/span&gt;" style="ellipse;whiteSpace=wrap;html=1;align=center;" vertex="1" parent="1">
          <mxGeometry x="-60" y="235" width="100" height="40" as="geometry" />
        </mxCell>
        <mxCell id="xLVzN7RcIW8N4ALDFcyE-17" value="" style="endArrow=none;html=1;rounded=0;" edge="1" parent="1" target="xLVzN7RcIW8N4ALDFcyE-18">
          <mxGeometry relative="1" as="geometry">
            <mxPoint x="290" y="254.5" as="sourcePoint" />
            <mxPoint x="400" y="255" as="targetPoint" />
          </mxGeometry>
        </mxCell>
        <mxCell id="xLVzN7RcIW8N4ALDFcyE-18" value="Hold" style="shape=rhombus;perimeter=rhombusPerimeter;whiteSpace=wrap;html=1;align=center;" vertex="1" parent="1">
          <mxGeometry x="340" y="225" width="120" height="60" as="geometry" />
        </mxCell>
        <mxCell id="xLVzN7RcIW8N4ALDFcyE-19" value="" style="endArrow=none;html=1;rounded=0;" edge="1" parent="1" target="xLVzN7RcIW8N4ALDFcyE-20">
          <mxGeometry relative="1" as="geometry">
            <mxPoint x="460" y="254.5" as="sourcePoint" />
            <mxPoint x="620" y="254.5" as="targetPoint" />
          </mxGeometry>
        </mxCell>
        <mxCell id="xLVzN7RcIW8N4ALDFcyE-20" value="ROLE" style="whiteSpace=wrap;html=1;align=center;" vertex="1" parent="1">
          <mxGeometry x="530" y="220" width="180" height="75.5" as="geometry" />
        </mxCell>
        <mxCell id="xLVzN7RcIW8N4ALDFcyE-26" value="Role_ID" style="ellipse;whiteSpace=wrap;html=1;align=center;fontStyle=4;" vertex="1" parent="1">
          <mxGeometry x="570" y="120" width="100" height="40" as="geometry" />
        </mxCell>
        <mxCell id="xLVzN7RcIW8N4ALDFcyE-27" value="" style="endArrow=none;html=1;rounded=0;" edge="1" parent="1">
          <mxGeometry relative="1" as="geometry">
            <mxPoint x="620" y="160" as="sourcePoint" />
            <mxPoint x="619.5" y="220" as="targetPoint" />
          </mxGeometry>
        </mxCell>
        <mxCell id="xLVzN7RcIW8N4ALDFcyE-41" value="Role_Name" style="ellipse;whiteSpace=wrap;html=1;align=center;" vertex="1" parent="1">
          <mxGeometry x="450" y="140" width="100" height="40" as="geometry" />
        </mxCell>
        <mxCell id="xLVzN7RcIW8N4ALDFcyE-42" value="" style="endArrow=none;html=1;rounded=0;" edge="1" parent="1">
          <mxGeometry relative="1" as="geometry">
            <mxPoint x="510" y="180" as="sourcePoint" />
            <mxPoint x="560" y="220" as="targetPoint" />
          </mxGeometry>
        </mxCell>
        <mxCell id="xLVzN7RcIW8N4ALDFcyE-43" value="Role_Pay" style="ellipse;whiteSpace=wrap;html=1;align=center;" vertex="1" parent="1">
          <mxGeometry x="710" y="140" width="100" height="40" as="geometry" />
        </mxCell>
        <mxCell id="xLVzN7RcIW8N4ALDFcyE-44" value="" style="endArrow=none;html=1;rounded=0;entryX=0.5;entryY=1;entryDx=0;entryDy=0;" edge="1" parent="1" target="xLVzN7RcIW8N4ALDFcyE-43">
          <mxGeometry relative="1" as="geometry">
            <mxPoint x="680" y="220" as="sourcePoint" />
            <mxPoint x="770" y="175" as="targetPoint" />
          </mxGeometry>
        </mxCell>
        <mxCell id="xLVzN7RcIW8N4ALDFcyE-45" value="Role_Manager" style="ellipse;whiteSpace=wrap;html=1;align=center;" vertex="1" parent="1">
          <mxGeometry x="770" y="237.75" width="100" height="40" as="geometry" />
        </mxCell>
        <mxCell id="xLVzN7RcIW8N4ALDFcyE-46" value="" style="endArrow=none;html=1;rounded=0;" edge="1" parent="1">
          <mxGeometry relative="1" as="geometry">
            <mxPoint x="770" y="258" as="sourcePoint" />
            <mxPoint x="710" y="258" as="targetPoint" />
          </mxGeometry>
        </mxCell>
        <mxCell id="xLVzN7RcIW8N4ALDFcyE-54" value="Works" style="shape=rhombus;perimeter=rhombusPerimeter;whiteSpace=wrap;html=1;align=center;" vertex="1" parent="1">
          <mxGeometry x="130" y="390" width="120" height="60" as="geometry" />
        </mxCell>
        <mxCell id="xLVzN7RcIW8N4ALDFcyE-56" value="" style="endArrow=none;html=1;rounded=0;exitX=0.5;exitY=0;exitDx=0;exitDy=0;entryX=0.5;entryY=1;entryDx=0;entryDy=0;" edge="1" parent="1" source="xLVzN7RcIW8N4ALDFcyE-54" target="xLVzN7RcIW8N4ALDFcyE-3">
          <mxGeometry relative="1" as="geometry">
            <mxPoint x="270" y="350" as="sourcePoint" />
            <mxPoint x="430" y="350" as="targetPoint" />
          </mxGeometry>
        </mxCell>
        <mxCell id="xLVzN7RcIW8N4ALDFcyE-57" value="" style="line;strokeWidth=1;rotatable=0;dashed=0;labelPosition=right;align=left;verticalAlign=middle;spacingTop=0;spacingLeft=6;points=[];portConstraint=eastwest;" vertex="1" parent="1">
          <mxGeometry x="250" y="415" width="150" height="10" as="geometry" />
        </mxCell>
        <mxCell id="xLVzN7RcIW8N4ALDFcyE-60" value="BRANCH" style="whiteSpace=wrap;html=1;align=center;" vertex="1" parent="1">
          <mxGeometry x="400" y="390" width="140" height="60" as="geometry" />
        </mxCell>
        <mxCell id="xLVzN7RcIW8N4ALDFcyE-62" value="Branch_Number" style="ellipse;whiteSpace=wrap;html=1;align=center;fontStyle=4;" vertex="1" parent="1">
          <mxGeometry x="420" y="320" width="100" height="40" as="geometry" />
        </mxCell>
        <mxCell id="xLVzN7RcIW8N4ALDFcyE-65" value="" style="endArrow=none;html=1;rounded=0;" edge="1" parent="1">
          <mxGeometry relative="1" as="geometry">
            <mxPoint x="470" y="360" as="sourcePoint" />
            <mxPoint x="469.5" y="390" as="targetPoint" />
          </mxGeometry>
        </mxCell>
        <mxCell id="xLVzN7RcIW8N4ALDFcyE-66" value="Branch_Contact" style="ellipse;whiteSpace=wrap;html=1;align=center;" vertex="1" parent="1">
          <mxGeometry x="300" y="330" width="100" height="40" as="geometry" />
        </mxCell>
        <mxCell id="xLVzN7RcIW8N4ALDFcyE-67" value="Branch_Manager" style="ellipse;whiteSpace=wrap;html=1;align=center;" vertex="1" parent="1">
          <mxGeometry x="540" y="330" width="100" height="40" as="geometry" />
        </mxCell>
        <mxCell id="xLVzN7RcIW8N4ALDFcyE-71" value="" style="endArrow=none;html=1;rounded=0;exitX=0.5;exitY=1;exitDx=0;exitDy=0;" edge="1" parent="1" source="xLVzN7RcIW8N4ALDFcyE-66">
          <mxGeometry relative="1" as="geometry">
            <mxPoint x="270" y="350" as="sourcePoint" />
            <mxPoint x="430" y="390" as="targetPoint" />
          </mxGeometry>
        </mxCell>
        <mxCell id="xLVzN7RcIW8N4ALDFcyE-74" value="" style="endArrow=none;html=1;rounded=0;" edge="1" parent="1" source="xLVzN7RcIW8N4ALDFcyE-70">
          <mxGeometry relative="1" as="geometry">
            <mxPoint x="540" y="415" as="sourcePoint" />
            <mxPoint x="670" y="415" as="targetPoint" />
          </mxGeometry>
        </mxCell>
        <mxCell id="xLVzN7RcIW8N4ALDFcyE-75" value="" style="endArrow=none;html=1;rounded=0;exitX=1;exitY=0.5;exitDx=0;exitDy=0;" edge="1" parent="1" source="xLVzN7RcIW8N4ALDFcyE-60" target="xLVzN7RcIW8N4ALDFcyE-70">
          <mxGeometry relative="1" as="geometry">
            <mxPoint x="540" y="415" as="sourcePoint" />
            <mxPoint x="670" y="415" as="targetPoint" />
          </mxGeometry>
        </mxCell>
        <mxCell id="xLVzN7RcIW8N4ALDFcyE-70" value="Branch_Location" style="ellipse;whiteSpace=wrap;html=1;align=center;" vertex="1" parent="1">
          <mxGeometry x="610" y="400" width="100" height="40" as="geometry" />
        </mxCell>
      </root>
    </mxGraphModel>
  </diagram>
</mxfile>
